PathFileType	4	(X/Y/Z)	D:\Long Term Storage\D'Arcy Smith\Coord16.trc
DataRate	CameraRate	NumFrames	NumMarkers	Units	OrigDataRate	OrigDataStartFrame	OrigNumFrames
120.00	120.00	      109	4	mm	120.00	4239	      4844
Frame#	Time	M1			M2			M3			M4			
		X1	Y1	Z1	X2	Y2	Z2	X3	Y3	Z3	X4	Y4	Z4	

4239	35.317	1046.35278	383.42767	205.22398	1583.32227	284.28568	502.00156							
4240	35.325	1044.15991	378.71185	209.44307	1583.03027	282.30264	491.98462							
4241	35.333	1042.84143	373.89819	213.67650	1582.42712	278.93921	481.28482							
4242	35.342	1041.16687	368.73672	218.44647	1582.76636	278.33069	470.34769							
4243	35.350	1039.63562	363.12997	223.57368	1582.67920	276.61978	458.78711							
4244	35.358	1037.64233	357.49667	229.27704	1582.63135	275.37762	446.79581							
4245	35.367	1036.77576	351.71973	235.39810	1582.46497	274.54672	434.52039							
4246	35.375	1035.52258	345.88123	242.09752	1581.48425	274.08810	421.38901							
4247	35.383	1034.53381	339.91739	249.42172	1580.68091	273.84436	408.25589							
4248	35.392	1033.02844	333.84525	257.49469	1579.67004	274.11407	394.78241							
4249	35.400	1032.17786	328.05304	265.99365	1579.11890	275.00558	381.08719							
4250	35.408	1031.45569	322.33932	275.04150	1577.52075	276.82379	367.09741							
4251	35.417	1030.79187	316.65149	284.68219	1576.60730	278.49704	353.03998							
4252	35.425	1030.26465	311.19803	294.94846	1574.96619	280.93942	339.55701							
4253	35.433	1029.68506	305.82581	305.72556	1575.79663	283.28717	325.70877							
4254	35.442	1029.14746	300.59970	317.23740	1575.09351	286.06744	311.89612							
4255	35.450	1026.54529	295.14099	331.47482	1574.10059	290.11697	298.27960							
4256	35.458	1026.43286	290.66919	343.40350	1573.18982	294.34885	284.75580							
4257	35.467	1025.99377	286.37747	357.94888	1572.08130	299.20572	271.55713							
4258	35.475	1025.88647	283.23593	371.00327	1571.23352	304.46222	258.71048							
4259	35.483	1025.67493	280.75034	384.20428	1570.46619	309.95352	246.12894							
4260	35.492	1025.69385	278.32819	397.36386	1567.56262	315.82401	233.91209							
4261	35.500	1025.30615	277.74783	410.35019	1568.48022	322.01163	222.63902							
4262	35.508	1025.17749	276.98938	423.32352	1568.21814	328.33118	211.35730							
4263	35.517	1024.91736	276.65308	436.19055	1567.58289	334.62674	200.59158							
4264	35.525	1024.97363	276.78412	448.27484	1565.31848	341.25171	190.35291							
4265	35.533	1024.64185	277.42581	460.26636	1566.64331	347.72235	180.90807							
4266	35.542	1024.33936	278.48621	472.05460	1566.67419	354.37521	171.90900							
4267	35.550	1023.91760	279.77411	483.52826	1564.54749	360.80466	163.36247							
4268	35.558	1023.50995	281.61707	493.71707	1564.46790	367.18057	155.56805							
4269	35.567	1022.84070	284.19785	502.96036	1564.44702	373.29926	148.33588							
4270	35.575	1022.35547	286.65439	512.09290	1564.70386	379.02847	141.69611							
4271	35.583	1021.58289	289.31873	520.75262	1564.94702	384.76074	135.86180							
4272	35.592	1021.03058	292.24796	528.68225	1565.69788	389.99100	130.70503							
4273	35.600	1020.13196	295.24551	535.94000	1566.22253	394.83688	126.08173							
4274	35.608	1019.36023	298.21872	542.15961	1566.95972	399.14444	122.12205							
4275	35.617	1018.58691	300.78488	547.18652	1568.11145	402.96924	118.84000							
4276	35.625	1017.05542	303.81015	554.35968	1568.54993	406.24777	115.83097							
4277	35.633	1015.83405	306.64520	558.61328	1569.64844	408.87051	113.69173							
4278	35.642	1014.44037	309.16757	562.24084	1570.68250	411.11090	111.90449							
4279	35.650	1013.24756	311.54956	564.37415	1571.52747	412.43839	110.74808							
4280	35.658	1011.92322	313.67813	566.38232	1573.06409	413.53104	110.08028							
4281	35.667	1010.48297	315.33218	567.60315	1574.18005	413.96158	109.86523							
4282	35.675	1009.06696	317.03937	567.57843	1575.24548	413.70624	109.95601							
4283	35.683	1007.55139	318.10098	567.25055	1576.30200	412.77362	110.74476							
4284	35.692	1005.96948	318.74893	566.11816	1577.18616	411.52942	111.90025							
4285	35.700	1004.50641	319.29141	563.80634	1578.33679	409.34747	113.76060							
4286	35.708	1003.29828	319.52679	560.81110	1579.35889	406.61096	116.15461							
4287	35.717	1001.87976	319.20621	557.43097	1581.26587	403.28360	119.33076							
4288	35.725	1000.56268	318.47629	553.24805	1582.34888	399.16992	123.10561							
4289	35.733	999.46271	317.66129	548.60077	1582.82446	394.41660	127.61530							
4290	35.742	998.72247	316.55923	542.97723	1583.43652	389.15494	133.06477							
4291	35.750	997.88055	315.20029	536.54810	1583.61035	383.12628	139.25293							
4292	35.758	997.34338	313.78299	529.80945	1583.60986	376.58197	146.32249							
4293	35.767	997.13080	312.11685	522.31873	1583.74048	369.56592	154.39618							
4294	35.775	997.12701	311.04575	512.63342	1582.79395	362.20157	163.04831							
4295	35.783	997.24902	309.30557	504.07092	1582.04370	354.55356	172.82430							
4296	35.792	997.72253	307.61432	495.64023	1581.54309	346.72412	183.40453							
4297	35.800	998.18579	305.33929	486.87158	1580.39221	338.75931	194.67348							
4298	35.808	999.33795	303.80792	476.60742	1579.11499	330.69952	206.73192							
4299	35.817	1000.37427	302.40256	466.11987	1577.82910	322.68774	219.32220							
4300	35.825	1001.87158	301.19318	455.01474	1575.46436	314.75345	232.77365							
4301	35.833	1003.58069	300.14407	443.48856	1574.19531	307.15665	246.52388							
4302	35.842	1005.56354	299.58188	431.62518	1572.17627	299.80115	261.23990							
4303	35.850	1007.70471	299.31689	419.86517	1570.70471	293.18353	276.20587							
4304	35.858	1010.11005	299.34534	407.58170	1568.55505	286.88974	291.81897							
4305	35.867	1013.42456	299.95908	394.32129	1566.54297	281.22479	307.72632							
4306	35.875	1016.56372	300.82022	381.20319	1564.23328	276.52469	323.61749							
4307	35.883	1018.91174	301.73831	369.94675	1562.17871	272.37872	339.82086							
4308	35.892	1022.75903	303.68686	356.35870	1559.57813	269.43393	355.54092							
4309	35.900	1025.06165	305.58047	345.29556	1557.67896	266.97647	371.91473							
4310	35.908	1030.06921	308.16946	330.86676	1555.63757	265.08105	388.14325							
4311	35.917	1033.84998	311.42712	316.29865	1553.72925	264.08325	404.02264							
4312	35.925	1037.49951	314.49979	303.72717	1552.41064	264.36725	419.45914							
4313	35.933	1041.99182	319.05890	290.60944	1550.60364	264.78012	434.72208							
4314	35.942	1046.08594	323.07678	279.11743	1548.83386	266.10297	449.37589							
4315	35.950	1049.76697	327.34457	267.10464	1549.25159	267.56927	463.82642							
4316	35.958	1054.07507	331.85010	256.07693	1546.84216	269.57312	477.87329							
4317	35.967	1058.27051	336.52939	245.01756	1545.28369	272.52304	490.31555							
4318	35.975	1062.01123	341.59738	234.40878	1544.36914	276.13937	501.65155							
4319	35.983	1065.32703	346.74496	223.82381	1543.13306	279.75775	512.51001							
4320	35.992	1069.26892	352.07761	214.36548	1541.84546	283.63440	522.26044							
4321	36.000	1073.50806	357.67020	204.78207	1540.87244	287.53235	531.05194							
4322	36.008	1076.75000	363.08569	195.24129	1539.91797	291.43958	538.77625							
4323	36.017	1080.67297	368.34485	187.41068	1539.16101	295.21948	545.40601							
4324	36.025	1083.80713	373.31433	179.37923	1538.33618	298.69125	551.08282							
4325	36.033	1086.76978	378.41016	171.94681	1537.62488	301.77975	555.60956							
4326	36.042	1089.27124	383.20856	164.61928	1536.79114	304.50885	559.09760							
4327	36.050	1092.50342	387.64975	158.71797	1536.38086	306.96002	561.47711							
4328	36.058	1095.06152	392.08524	152.65384	1535.82935	308.63123	562.84131							
4329	36.067	1096.91150	396.14224	146.73561	1535.46851	309.93271	563.26691							
4330	36.075	1099.06323	399.91577	141.65875	1535.13525	310.63754	562.68756							
4331	36.083	1101.32019	403.31631	137.52435	1533.64648	311.27789	561.39337							
4332	36.092	1103.28198	406.35086	133.39050	1533.17957	310.80179	558.88580							
4333	36.100	1104.29407	408.93607	129.55469	1534.02014	309.55206	555.17218							
4334	36.108	1105.62817	411.04108	126.46509	1533.24731	308.40378	550.75159							
4335	36.117	1106.69812	412.77979	123.98085	1533.55188	306.75458	545.62671							
4336	36.125	1107.54749	413.90482	121.78138	1533.07129	304.81555	539.52142							
4337	36.133	1108.21838	414.50943	120.16048	1532.70886	302.53116	532.63239							
4338	36.142	1109.11584	414.47672	119.58648	1532.30017	300.23920	525.02838							
4339	36.150	1109.35095	413.95026	118.80190	1531.70300	297.60754	516.60236							
4340	36.158	1109.31152	412.89371	118.57136	1531.27454	295.01373	507.51138							
4341	36.167	1109.04993	411.11859	118.84466	1530.26807	292.49228	497.53928							
4342	36.175	1108.18250	409.16852	119.06639	1528.74255	288.97534	486.89279							
4343	36.183	1108.19934	406.35254	120.76492	1529.02747	287.34863	476.51288							
4344	36.192	1107.50122	403.26245	122.47928	1529.01721	286.14420	464.51450							
4345	36.200	1106.15430	399.66074	124.38528	1528.84949	283.76019	452.07004							
4346	36.208	1105.68958	395.44974	127.71043	1528.82141	282.40045	439.65332							
4347	36.217	1104.39917	390.93744	131.13661	1528.47083	281.21341	426.94800							
